<svg width="22" height="24" viewBox="0 0 22 24" fill="none" xmlns="http://www.w3.org/2000/svg">
<path d="M11.0149 0.625C11.8711 0.63487 12.724 0.733803 13.5599 0.920213C13.9248 1.00159 14.1976 1.30576 14.2391 1.67729L14.4376 3.45861C14.5275 4.2765 15.2181 4.89598 16.0413 4.89684C16.2626 4.89719 16.4815 4.85111 16.686 4.76063L18.3201 4.04282C18.6599 3.89352 19.057 3.97492 19.3107 4.24589C20.4916 5.50708 21.371 7.01968 21.8829 8.66984C21.9933 9.02568 21.8663 9.41237 21.5663 9.63342L20.118 10.701C19.7048 11.0046 19.4608 11.4867 19.4608 11.9994C19.4608 12.5121 19.7048 12.9941 20.1188 13.2984L21.5685 14.3664C21.8685 14.5873 21.9956 14.9741 21.8853 15.33C21.3736 16.9799 20.4946 18.4924 19.3144 19.7538C19.0609 20.0247 18.6642 20.1064 18.3244 19.9574L16.6836 19.2386C16.2142 19.0331 15.6751 19.0632 15.2315 19.3197C14.788 19.576 14.4928 20.0281 14.4363 20.5373L14.2392 22.3185C14.1985 22.6857 13.9314 22.9879 13.572 23.0734C11.8822 23.4755 10.1215 23.4755 8.43165 23.0734C8.07216 22.9879 7.80516 22.6857 7.76449 22.3185L7.56753 20.54C7.50968 20.0317 7.21401 19.581 6.77077 19.3255C6.32754 19.07 5.78935 19.04 5.32151 19.2443L3.68044 19.9632C3.34054 20.1122 2.94365 20.0305 2.69019 19.7594C1.50934 18.4966 0.630335 16.9823 0.119346 15.3306C0.00928297 14.9749 0.136449 14.5884 0.436259 14.3675L1.88682 13.2989C2.29999 12.9953 2.54399 12.5132 2.54399 12.0006C2.54399 11.4878 2.29999 11.0058 1.88627 10.7018L0.436633 9.63499C0.136368 9.41403 0.00908463 9.02708 0.119545 8.67101C0.63142 7.02084 1.51088 5.50825 2.69175 4.24706C2.94547 3.97609 3.34254 3.89469 3.68239 4.04399L5.31617 4.76167C5.78627 4.96799 6.32671 4.93683 6.77234 4.67647C7.21605 4.41911 7.51144 3.96659 7.56848 3.45725L7.76689 1.67729C7.80833 1.30557 8.08145 1.0013 8.44655 0.920097C9.28341 0.73399 10.1372 0.635092 11.0149 0.625ZM11.015 2.37488C10.4853 2.38111 9.95704 2.42683 9.43472 2.51152L9.30767 3.65154C9.18891 4.71263 8.57398 5.65452 7.65277 6.18887C6.72591 6.73037 5.59587 6.79554 4.61262 6.36403L3.56462 5.90365C2.89737 6.71352 2.36628 7.62657 1.99222 8.60696L2.92299 9.29192C3.78493 9.9252 4.29399 10.931 4.29399 12.0006C4.29399 13.0701 3.78493 14.0759 2.9239 14.7084L1.99166 15.3952C2.36539 16.3773 2.89657 17.2921 3.56428 18.1035L4.62026 17.641C5.59804 17.2141 6.72039 17.2765 7.64473 17.8093C8.56906 18.3421 9.18564 19.282 9.30662 20.3447L9.43367 21.4926C10.4717 21.6691 11.5319 21.6691 12.5699 21.4926L12.697 20.3448C12.8146 19.2825 13.4304 18.3393 14.356 17.8045C15.2814 17.2696 16.406 17.2068 17.3856 17.6356L18.4407 18.0978C19.1078 17.2877 19.6387 16.3744 20.0128 15.3938L19.0818 14.708C18.2198 14.0747 17.7108 13.0689 17.7108 11.9994C17.7108 10.9298 18.2198 9.92403 19.0807 9.29155L20.0104 8.60627C19.6364 7.62571 19.1052 6.71248 18.4379 5.90249L17.392 6.36193C16.9657 6.55051 16.5047 6.64757 16.0391 6.64684C14.3245 6.64505 12.8854 5.35414 12.6982 3.65114L12.5712 2.51115C12.0514 2.42657 11.5287 2.38097 11.015 2.37488ZM11.0003 7.62494C13.4166 7.62494 15.3753 9.58369 15.3753 12C15.3753 14.4162 13.4166 16.375 11.0003 16.375C8.58401 16.375 6.62525 14.4162 6.62525 12C6.62525 9.58369 8.58401 7.62494 11.0003 7.62494ZM11.0003 9.37494C9.55046 9.37494 8.37525 10.5502 8.37525 12C8.37525 13.4497 9.55046 14.625 11.0003 14.625C12.45 14.625 13.6253 13.4497 13.6253 12C13.6253 10.5502 12.45 9.37494 11.0003 9.37494Z" fill="#4D69C5"/>
</svg>
