<svg width="8" height="16" viewBox="0 0 8 16" fill="none" xmlns="http://www.w3.org/2000/svg">
<path d="M0.27982 1.04799C0.452671 0.883525 0.683756 0.794423 0.922279 0.800274C1.1608 0.806125 1.38724 0.906449 1.55182 1.07919L7.55302 7.37919C7.71258 7.54657 7.80159 7.76895 7.80159 8.00019C7.80159 8.23144 7.71258 8.45381 7.55302 8.62119L1.55302 14.9212C1.47155 15.0068 1.374 15.0756 1.26596 15.1236C1.15791 15.1715 1.04148 15.1977 0.923307 15.2007C0.805135 15.2036 0.687538 15.1833 0.577232 15.1408C0.466925 15.0983 0.366069 15.0345 0.280421 14.953C0.194773 14.8715 0.12601 14.774 0.0780594 14.6659C0.0301088 14.5579 0.0039094 14.4415 0.0009565 14.3233C-0.0019964 14.2051 0.0183554 14.0875 0.0608497 13.9772C0.103344 13.8669 0.167148 13.766 0.24862 13.6804L5.65942 7.99959L0.24742 2.31879C0.0831059 2.14579 -0.00578345 1.91461 0.00029217 1.67609C0.00636779 1.43756 0.106911 1.21121 0.27982 1.04679V1.04799Z" fill="#606069"/>
</svg>
